<svg width="22" height="22" viewBox="0 0 22 22" fill="none" xmlns="http://www.w3.org/2000/svg">
<path d="M3.5 3.49999C3.5 2.70434 3.81607 1.94128 4.37868 1.37867C4.94129 0.816057 5.70435 0.499986 6.5 0.499986C7.29565 0.499986 8.05871 0.816057 8.62132 1.37867C9.18393 1.94128 9.5 2.70434 9.5 3.49999C9.5 4.29564 9.18393 5.0587 8.62132 5.62131C8.05871 6.18392 7.29565 6.49999 6.5 6.49999C5.70435 6.49999 4.94129 6.18392 4.37868 5.62131C3.81607 5.0587 3.5 4.29564 3.5 3.49999ZM6.5 1.99999C6.10218 1.99999 5.72064 2.15802 5.43934 2.43933C5.15804 2.72063 5 3.10216 5 3.49999C5 3.89781 5.15804 4.27934 5.43934 4.56065C5.72064 4.84195 6.10218 4.99999 6.5 4.99999C6.89782 4.99999 7.27936 4.84195 7.56066 4.56065C7.84196 4.27934 8 3.89781 8 3.49999C8 3.10216 7.84196 2.72063 7.56066 2.43933C7.27936 2.15802 6.89782 1.99999 6.5 1.99999ZM13.6685 5.87599C13.3542 5.63628 13.0904 5.33683 12.8923 4.99485C12.6941 4.65288 12.5655 4.27511 12.5137 3.88326C12.462 3.49142 12.4882 3.09321 12.5909 2.71153C12.6935 2.32984 12.8706 1.97221 13.1119 1.65917C13.3532 1.34613 13.654 1.08386 13.997 0.887424C14.3399 0.69099 14.7184 0.564267 15.1105 0.514535C15.5026 0.464803 15.9006 0.493043 16.2818 0.597633C16.663 0.702222 17.0197 0.8811 17.3315 1.12399C17.9454 1.61509 18.3421 2.32758 18.436 3.10814C18.53 3.8887 18.3138 4.67496 17.8339 5.29773C17.3541 5.9205 16.6489 6.33002 15.8702 6.43816C15.0915 6.5463 14.2999 6.34443 13.6685 5.87599ZM15.5 1.99999C15.1022 1.99999 14.7206 2.15802 14.4393 2.43933C14.158 2.72063 14 3.10216 14 3.49999C14 3.89781 14.158 4.27934 14.4393 4.56065C14.7206 4.84195 15.1022 4.99999 15.5 4.99999C15.8978 4.99999 16.2794 4.84195 16.5607 4.56065C16.842 4.27934 17 3.89781 17 3.49999C17 3.10216 16.842 2.72063 16.5607 2.43933C16.2794 2.15802 15.8978 1.99999 15.5 1.99999ZM2.75 7.99999H6.755C6.59 8.46949 6.5 8.97499 6.5 9.49999H2.75C2.55109 9.49999 2.36032 9.579 2.21967 9.71966C2.07902 9.86031 2 10.0511 2 10.25C2 11.4755 2.4875 12.3845 3.257 13.0025C3.611 13.2875 4.0355 13.517 4.5155 13.685C4.16301 14.0597 3.89138 14.5028 3.7175 14.987C3.214 14.7847 2.74257 14.5104 2.318 14.1725C1.19 13.265 0.5 11.924 0.5 10.25C0.5 9.65325 0.737053 9.08095 1.15901 8.659C1.58097 8.23704 2.15326 7.99999 2.75 7.99999ZM8.402 7.99999C8.00418 8.68942 7.89652 9.50864 8.10272 10.2774C8.30891 11.0463 8.81207 11.7017 9.5015 12.0995C10.1909 12.4973 11.0102 12.605 11.779 12.3988C12.5478 12.1926 13.2032 11.6894 13.601 11C13.9988 10.3106 14.1065 9.49133 13.9003 8.72252C13.6941 7.95372 13.1909 7.29831 12.5015 6.90049C11.8121 6.50266 10.9928 6.39501 10.224 6.6012C9.45523 6.8074 8.79982 7.31056 8.402 7.99999ZM10.664 8.03749C10.8838 7.98784 11.1119 7.98819 11.3315 8.03851C11.5511 8.08883 11.7567 8.18784 11.9329 8.32822C12.1091 8.46861 12.2516 8.64678 12.3497 8.84959C12.4479 9.05241 12.4992 9.27467 12.5 9.49999C12.4999 9.78222 12.4201 10.0587 12.27 10.2976C12.1198 10.5366 11.9052 10.7283 11.6509 10.8508C11.3966 10.9732 11.113 11.0215 10.8325 10.99C10.5521 10.9585 10.2862 10.8485 10.0654 10.6726C9.84466 10.4968 9.678 10.2622 9.58457 9.99591C9.49114 9.7296 9.47475 9.44232 9.53726 9.1671C9.59978 8.89188 9.73868 8.63989 9.93799 8.44006C10.1373 8.24024 10.3889 8.10071 10.664 8.03749ZM18.743 13.0025C18.389 13.2875 17.9645 13.517 17.4845 13.685C17.8364 14.0598 18.1076 14.503 18.281 14.987C18.791 14.7785 19.2635 14.507 19.682 14.1725C20.81 13.265 21.5 11.924 21.5 10.25C21.5 9.65325 21.2629 9.08095 20.841 8.659C20.419 8.23704 19.8467 7.99999 19.25 7.99999H15.245C15.41 8.46949 15.5 8.97499 15.5 9.49999H19.25C19.4489 9.49999 19.6397 9.579 19.7803 9.71966C19.921 9.86031 20 10.0511 20 10.25C20 11.4755 19.5125 12.3845 18.743 13.0025ZM14.75 14C15.3467 14 15.919 14.237 16.341 14.659C16.7629 15.081 17 15.6532 17 16.25C17 17.924 16.3115 19.265 15.182 20.1725C14.0705 21.065 12.5795 21.5 11 21.5C9.4205 21.5 7.9295 21.065 6.818 20.1725C5.69 19.265 5 17.924 5 16.25C4.99921 15.9543 5.05687 15.6614 5.16966 15.388C5.28245 15.1147 5.44815 14.8663 5.65724 14.6572C5.86633 14.4481 6.11469 14.2824 6.38803 14.1696C6.66137 14.0569 6.9543 13.9992 7.25 14H14.75ZM14.75 15.5H7.25C7.05109 15.5 6.86032 15.579 6.71967 15.7197C6.57902 15.8603 6.5 16.0511 6.5 16.25C6.5 17.4755 6.9875 18.3845 7.757 19.0025C8.546 19.6355 9.68 20 11 20C12.32 20 13.454 19.6355 14.243 19.0025C15.0125 18.3845 15.5 17.4755 15.5 16.25C15.5 16.0511 15.421 15.8603 15.2803 15.7197C15.1397 15.579 14.9489 15.5 14.75 15.5Z" fill="#323232"/>
</svg>
