<svg width="22" height="22" viewBox="0 0 22 22" fill="none" xmlns="http://www.w3.org/2000/svg">
<path d="M19.2499 11.57V10.4225L20.6899 9.1625C20.9554 8.92854 21.1296 8.60827 21.1817 8.2583C21.2339 7.90833 21.1606 7.55119 20.9749 7.25L19.2049 4.25C19.0734 4.0222 18.8843 3.83299 18.6566 3.70135C18.4288 3.56971 18.1705 3.50027 17.9074 3.5C17.7444 3.49875 17.5823 3.52408 17.4274 3.575L15.6049 4.19C15.2903 3.98091 14.9621 3.79299 14.6224 3.6275L14.2399 1.7375C14.1714 1.3922 13.9835 1.08203 13.7093 0.861277C13.4351 0.640523 13.0919 0.523254 12.7399 0.53H9.22995C8.87797 0.523254 8.53483 0.640523 8.2606 0.861277C7.98638 1.08203 7.79853 1.3922 7.72995 1.7375L7.34745 3.6275C7.0054 3.79295 6.67467 3.98086 6.35745 4.19L4.57245 3.545C4.41592 3.50422 4.25383 3.48902 4.09245 3.5C3.8294 3.50027 3.57105 3.56971 3.34332 3.70135C3.11558 3.83299 2.92647 4.0222 2.79495 4.25L1.02495 7.25C0.849886 7.55074 0.784834 7.90299 0.840932 8.24642C0.89703 8.58985 1.07079 8.9031 1.33245 9.1325L2.74995 10.43V11.5775L1.33245 12.8375C1.0634 13.0685 0.884887 13.3873 0.828594 13.7375C0.772302 14.0876 0.841867 14.4463 1.02495 14.75L2.79495 17.75C2.92647 17.9778 3.11558 18.167 3.34332 18.2987C3.57105 18.4303 3.8294 18.4997 4.09245 18.5C4.25546 18.5012 4.41758 18.4759 4.57245 18.425L6.39495 17.81C6.7096 18.0191 7.03783 18.207 7.37745 18.3725L7.75995 20.2625C7.82853 20.6078 8.01638 20.918 8.2906 21.1387C8.56483 21.3595 8.90797 21.4767 9.25995 21.47H12.7999C13.1519 21.4767 13.4951 21.3595 13.7693 21.1387C14.0435 20.918 14.2314 20.6078 14.2999 20.2625L14.6824 18.3725C15.0245 18.2071 15.3552 18.0191 15.6724 17.81L17.4874 18.425C17.6423 18.4759 17.8044 18.5012 17.9674 18.5C18.2305 18.4997 18.4888 18.4303 18.7166 18.2987C18.9443 18.167 19.1334 17.9778 19.2649 17.75L20.9749 14.75C21.15 14.4493 21.2151 14.097 21.159 13.7536C21.1029 13.4101 20.9291 13.0969 20.6674 12.8675L19.2499 11.57ZM17.9074 17L15.3349 16.13C14.7327 16.6401 14.0445 17.0388 13.3024 17.3075L12.7699 20H9.22995L8.69745 17.3375C7.96126 17.0612 7.27673 16.6631 6.67245 16.16L4.09245 17L2.32245 14L4.36245 12.2C4.22377 11.4236 4.22377 10.6289 4.36245 9.8525L2.32245 8L4.09245 5L6.66495 5.87C7.26715 5.35992 7.9554 4.96119 8.69745 4.6925L9.22995 2H12.7699L13.3024 4.6625C14.0386 4.93882 14.7232 5.33686 15.3274 5.84L17.9074 5L19.6774 8L17.6374 9.8C17.7761 10.5764 17.7761 11.3711 17.6374 12.1475L19.6774 14L17.9074 17Z" fill="#323232"/>
</svg>
